<svg width="139" height="32" viewBox="0 0 139 32" fill="none" xmlns="http://www.w3.org/2000/svg">
<path d="M2.17823 5.97617V12.288C2.17823 13.3233 2.17823 14.4862 0 14.4862V16.1916V16.2146V17.8772C2.17823 17.8772 2.17823 19.0395 2.17823 20.0755V26.3868C2.17823 31.2851 4.89982 31.6408 9.52762 31.6408V27.831C7.34939 27.831 6.53333 27.5148 6.53333 26.2927V20.0434C6.53333 18.6003 6.63379 17.093 5.35638 16.1811C6.63379 15.2706 6.53333 13.7632 6.53333 12.3188V6.07083C6.53333 4.85003 7.35007 4.5325 9.52762 4.5325V0.722169C4.89982 0.721512 2.17823 1.07717 2.17823 5.97617ZM14.4247 5.77171C13.2347 6.76308 12.6401 8.18703 12.6401 10.0422V11.7088H10.1544V15.1911H12.6401V27.8106H18.0416V15.1911H21.3879V11.7088H18.0416V10.5202C18.0416 9.91535 18.2221 9.44925 18.583 9.12186C18.9439 8.79447 19.4599 8.63143 20.129 8.63143C20.4577 8.63143 22.137 8.6367 22.137 8.6367V4.59561C22.137 4.59561 19.1386 4.5634 18.7101 4.5634C17.4061 4.5634 15.6146 4.77903 14.4247 5.77171ZM24.5128 8.62224H29.915V4.59561H24.5128V8.62224ZM24.5128 27.8113H29.915V11.7088H24.5128V27.8113ZM43.2359 11.411C42.2161 11.411 41.2913 11.6371 40.463 12.088C39.6346 12.539 38.9389 13.1676 38.3757 13.9702L38.1686 11.7088H33.117V27.8106H38.4871V16.2336C38.7632 15.9359 39.0953 15.7013 39.4829 15.5342C39.8704 15.3672 40.3139 15.2811 40.8136 15.2811C41.6105 15.2811 42.2134 15.4724 42.6221 15.8537C43.0309 16.2363 43.2359 16.8872 43.2359 17.8109V27.8119H48.6216V17.826C48.6216 15.5934 48.1459 13.9663 47.1959 12.944C46.2451 11.9218 44.9247 11.411 43.2359 11.411ZM64.9102 19.8718C63.8959 19.1033 62.3362 18.5241 60.2331 18.1376C58.8949 17.9009 58.0043 17.6313 57.5642 17.3336C57.1233 17.0371 56.9026 16.6735 56.9026 16.2475C56.9026 15.8004 57.0939 15.4356 57.476 15.147C57.8581 14.8591 58.3311 14.7145 58.8942 14.7145C59.659 14.7145 60.2141 14.8788 60.5592 15.2062C60.9043 15.5336 61.0773 16.0148 61.0773 16.6492H66.3038L66.3359 16.5605C66.4001 15.0405 65.7522 13.8052 64.3921 12.8474C63.032 11.8895 61.2043 11.4103 58.9099 11.4103C56.7317 11.4103 55.0059 11.9047 53.7306 12.8921C52.4559 13.8795 51.8189 15.0813 51.8189 16.4993C51.8189 17.8385 52.3288 18.8961 53.3486 19.6693C54.3682 20.4437 55.8822 21.0137 57.8902 21.3811C59.1649 21.6291 60.0438 21.9091 60.5271 22.2213C61.011 22.5343 61.2522 22.8899 61.2522 23.2844C61.2522 23.7709 61.0663 24.1469 60.6945 24.4079C60.3226 24.6709 59.7759 24.8044 59.0535 24.8044C58.1827 24.8044 57.5102 24.6341 57.0379 24.2974C56.5649 23.9608 56.3182 23.4099 56.297 22.6461H51.4211L51.3897 22.7348C51.3262 24.1048 51.9761 25.3453 53.3417 26.4557C54.7066 27.5674 56.5629 28.1222 58.9106 28.1222C61.1736 28.1222 62.9923 27.6535 64.3681 26.7154C65.7447 25.778 66.4322 24.5861 66.4322 23.1365C66.4322 21.7289 65.9245 20.6403 64.9102 19.8718ZM84.1369 21.04H84.0413L81.2055 11.7101H77.8107L75.0064 21.1156H74.9107L73.0147 11.7101H68.0432L72.1064 27.8119H76.6488L79.4681 19.2703H79.5638L82.3688 27.8119H86.9262L90.9737 11.7101H86.0022L84.1369 21.04ZM100.118 11.4109C97.5576 11.4011 95.5886 12.1729 94.2134 13.7256C92.8362 15.2778 92.1486 17.2796 92.1486 19.7298V20.2959C92.1486 22.5375 92.9059 24.4033 94.4184 25.8917C95.9323 27.3808 97.9595 28.1242 100.499 28.1242C101.869 28.1242 103.152 27.9533 104.347 27.6108C105.542 27.269 106.517 26.8404 107.271 26.3242L105.996 23.2581C105.061 23.6262 104.288 23.8833 103.677 24.0325C103.066 24.1824 102.25 24.2568 101.231 24.2568C100.221 24.2568 99.4146 23.9911 98.809 23.4605C98.2029 22.928 97.8426 22.2516 97.725 21.4285L97.7578 21.3384H107.605V18.7029C107.605 16.4612 106.94 14.6855 105.613 13.3753C104.287 12.0657 102.454 11.4109 100.118 11.4109ZM102.349 18.198H97.7114L97.6635 18.1244C97.749 17.2605 97.9855 16.5709 98.3737 16.0549C98.7606 15.5401 99.3429 15.2818 100.119 15.2818C100.883 15.2818 101.445 15.5 101.808 15.9366C102.169 16.373 102.35 16.9983 102.35 17.8114L102.349 18.198ZM118.192 11.4109C115.631 11.4011 113.664 12.1729 112.287 13.7256C110.912 15.2778 110.223 17.2796 110.223 19.7298V20.2959C110.223 22.5375 110.98 24.4033 112.494 25.8917C114.009 27.3808 116.034 28.1242 118.573 28.1242C119.944 28.1242 121.227 27.9533 122.423 27.6108C123.618 27.269 124.592 26.8404 125.346 26.3242L124.072 23.2581C123.137 23.6262 122.365 23.8833 121.753 24.0325C121.141 24.1824 120.326 24.2568 119.306 24.2568C118.297 24.2568 117.49 23.9911 116.885 23.4605C116.278 22.928 115.918 22.2516 115.8 21.4285L115.832 21.3384H125.68V18.7029C125.68 16.4612 125.016 14.6855 123.688 13.3753C122.36 12.0657 120.529 11.4109 118.192 11.4109ZM120.422 18.198H115.786L115.738 18.1244C115.824 17.2605 116.059 16.5709 116.447 16.0549C116.833 15.5401 117.416 15.2818 118.192 15.2818C118.957 15.2818 119.52 15.5 119.882 15.9366C120.245 16.373 120.424 16.9983 120.424 17.8114V18.1986H120.422V18.198ZM136.745 23.6348C136.077 23.6348 135.56 23.4718 135.199 23.1444C134.839 22.817 134.657 22.3496 134.657 21.7447V15.2194H137.459V11.7357H134.657V4.56997H129.256V11.7357H126.769V15.2194H129.256V22.2227C129.256 24.0779 129.85 25.5018 131.04 26.4945C132.229 27.4878 134.019 27.7028 135.326 27.7028C135.755 27.7028 138.753 27.6706 138.753 27.6706V23.6296C138.753 23.6296 137.075 23.6348 136.745 23.6348Z" fill="#1E1B1B"/>
</svg>
